<svg xmlns="http://www.w3.org/2000/svg" width="93" height="94" fill="none" viewBox="0 0 93 94"><path fill="url(#paint0_linear_1_208)" d="M62.1035 62.0989H31.3877V31.383C31.3877 14.4473 45.1677 0.667236 62.1035 0.667236C79.0393 0.667236 92.8193 14.4473 92.8193 31.383C92.8193 48.3188 79.0393 62.0989 62.1035 62.0989ZM42.4854 51.0117H62.1035C72.9277 51.0117 81.7322 42.2072 81.7322 31.383C81.7322 20.5589 72.9277 11.7649 62.1035 11.7649C51.2793 11.7649 42.4748 20.5694 42.4748 31.3936V51.0117H42.4854Z"/><path fill="url(#paint1_linear_1_208)" d="M21.4264 93.1196C9.81335 93.1196 0.367188 83.6734 0.367188 72.0603C0.367188 60.4472 9.81335 51.0116 21.4264 51.0116H42.4857V72.0709C42.4857 83.6735 33.0395 93.1196 21.4264 93.1196ZM21.4264 62.0987C15.9249 62.0987 11.4543 66.5694 11.4543 72.0709C11.4543 77.5724 15.9249 82.043 21.4264 82.043C26.9279 82.043 31.3986 77.5724 31.3986 72.0709V62.0987H21.4264Z"/><path fill="url(#paint2_linear_1_208)" d="M42.4856 62.0989H31.3984V72.071H42.4856V62.0989Z"/><path fill="url(#paint3_linear_1_208)" d="M42.4856 41.0396H31.3984V51.0117H42.4856V41.0396Z"/><defs><linearGradient id="paint0_linear_1_208" x1="62.103" x2="31.387" y1=".667" y2="61.944" gradientUnits="userSpaceOnUse"><stop stop-color="#1A5CB0"/><stop offset="1" stop-color="#0FF"/></linearGradient><linearGradient id="paint1_linear_1_208" x1="9.237" x2="77.806" y1="86.097" y2="7.168" gradientUnits="userSpaceOnUse"><stop stop-color="#1A5CB0"/><stop offset=".5" stop-color="#0FF"/><stop offset="1" stop-color="#1A5CB0"/></linearGradient><linearGradient id="paint2_linear_1_208" x1="36.938" x2="36.938" y1="72.067" y2="62.098" gradientUnits="userSpaceOnUse"><stop stop-color="#0FF" stop-opacity="0"/><stop offset="1" stop-color="#1A5CB0"/></linearGradient><linearGradient id="paint3_linear_1_208" x1="36.938" x2="36.938" y1="41.04" y2="51.01" gradientUnits="userSpaceOnUse"><stop stop-color="#0FF" stop-opacity=".1"/><stop offset="1" stop-color="#1A5CB0"/></linearGradient></defs></svg>